<?xml version="1.0" encoding="utf-8"?>
<!-- Generator: Adobe Illustrator 22.1.0, SVG Export Plug-In . SVG Version: 6.00 Build 0)  -->
<svg version="1.1" id="Layer_1" xmlns="http://www.w3.org/2000/svg" xmlns:xlink="http://www.w3.org/1999/xlink" x="0px" y="0px"
	 viewBox="0 0 72.9 79.7" style="enable-background:new 0 0 72.9 79.7;" xml:space="preserve">
<style type="text/css">
	.st0{fill:url(#SVGID_1_);}
	.st1{fill:url(#SVGID_2_);}
	.st2{fill:url(#SVGID_3_);}
</style>
<linearGradient id="SVGID_1_" gradientUnits="userSpaceOnUse" x1="24.5" y1="12.5542" x2="57.3" y2="12.5542" gradientTransform="matrix(1 0 0 -1 0 82)">
	<stop  offset="0" style="stop-color:#7DB23D"/>
	<stop  offset="0.1524" style="stop-color:#7FB440"/>
	<stop  offset="0.2636" style="stop-color:#87B949"/>
	<stop  offset="0.3617" style="stop-color:#94C259"/>
	<stop  offset="0.4517" style="stop-color:#A6CE6F"/>
	<stop  offset="0.4888" style="stop-color:#B0D57B"/>
	<stop  offset="0.5503" style="stop-color:#9BC16A"/>
	<stop  offset="0.6907" style="stop-color:#709947"/>
	<stop  offset="0.8174" style="stop-color:#527B2E"/>
	<stop  offset="0.9248" style="stop-color:#3F691E"/>
	<stop  offset="1" style="stop-color:#386319"/>
</linearGradient>
<path class="st0" d="M55.1,66.2c-0.9-0.5-2.1-0.9-3.6-1.2c-1.4-0.3-3.1-0.6-4.8-0.8c-1.1-0.1-2.1,0.7-2.2,1.8
	c-0.1,1.1,0.7,2.1,1.8,2.2c1.7,0.2,3.1,0.3,4.3,0.7c0.5,0.1,1,0.3,1.3,0.3c-0.3,0.1-0.8,0.3-1.3,0.3c-1.2,0.3-2.7,0.5-4.3,0.7
	c-3.4,0.3-7.4,0.3-10.8,0c-1.7-0.2-3.1-0.3-4.3-0.7c-0.5-0.1-1-0.3-1.3-0.3c0.3-0.1,0.8-0.3,1.3-0.3c1.2-0.3,2.7-0.5,4.3-0.7
	c1.1-0.1,1.9-1.1,1.8-2.2c-0.1-1.1-1.1-1.9-2.2-1.8c-1.8,0.2-3.4,0.4-4.8,0.8c-1.5,0.3-2.7,0.8-3.6,1.2c-1.8,1-2.2,2.2-2.2,3.1
	s0.3,2.1,2.2,3.1c0.9,0.5,2.1,0.9,3.6,1.2c1.4,0.3,3.1,0.6,4.8,0.8c1.8,0.2,3.8,0.3,5.8,0.3s3.9-0.1,5.8-0.3s3.4-0.4,4.8-0.8
	c1.5-0.3,2.7-0.8,3.6-1.2c1.8-1,2.2-2.2,2.2-3.1C57.3,68.5,57,67.3,55.1,66.2z"/>
<linearGradient id="SVGID_2_" gradientUnits="userSpaceOnUse" x1="13.5848" y1="40.9972" x2="68.3" y2="40.9972" gradientTransform="matrix(1 0 0 -1 0 82)">
	<stop  offset="0" style="stop-color:#7DB23D"/>
	<stop  offset="0.1524" style="stop-color:#7FB440"/>
	<stop  offset="0.2636" style="stop-color:#87B949"/>
	<stop  offset="0.3617" style="stop-color:#94C259"/>
	<stop  offset="0.4517" style="stop-color:#A6CE6F"/>
	<stop  offset="0.4888" style="stop-color:#B0D57B"/>
	<stop  offset="0.5503" style="stop-color:#9BC16A"/>
	<stop  offset="0.6907" style="stop-color:#709947"/>
	<stop  offset="0.8174" style="stop-color:#527B2E"/>
	<stop  offset="0.9248" style="stop-color:#3F691E"/>
	<stop  offset="1" style="stop-color:#386319"/>
</linearGradient>
<path class="st1" d="M68.3,18.2c0-2.4-2.5-3.7-9.1-4.6c-4.9-0.7-11.4-1.1-18.3-1.1c-2.8,0-5.5,0.1-8,0.2c-1,0.1-1.9,1-1.8,2
	s1,1.9,2,1.8c2.5-0.1,5.2-0.2,7.9-0.2c10.9,0,18.2,1,21.7,1.8C59.2,19,52,19.9,41,19.9c-12.5,0-20.2-1.3-22.9-2.2l-0.5-0.2
	c-0.3-0.2-0.8-0.5-1.1-0.9c-0.2-0.2-0.4-0.3-0.6-0.4c-1.1-0.3-2.2,0.5-2.3,1.7c-0.1,1,0.3,1.7,1,2.4l0,0l24.1,24.9v22.1
	c0,0.8,0.4,1.7,1.2,2c1.5,0.7,3-0.5,3-1.9V45.3l24.4-24.9c0.2-0.2,0.3-0.4,0.4-0.7C68.2,19.2,68.3,18.8,68.3,18.2z M40.9,24
	c6.8,0,13.3-0.4,18.2-1.1l-3.7,3.8c-1.7,0.5-7.5,2.1-14.2,2.1c-7,0-13.4-1.7-14.7-2.2L22.9,23C27.7,23.6,34.1,24,40.9,24z"/>
<linearGradient id="SVGID_3_" gradientUnits="userSpaceOnUse" x1="4.6" y1="64.45" x2="29.5307" y2="64.45" gradientTransform="matrix(1 0 0 -1 0 82)">
	<stop  offset="0" style="stop-color:#7DB23D"/>
	<stop  offset="0.1524" style="stop-color:#7FB440"/>
	<stop  offset="0.2636" style="stop-color:#87B949"/>
	<stop  offset="0.3617" style="stop-color:#94C259"/>
	<stop  offset="0.4517" style="stop-color:#A6CE6F"/>
	<stop  offset="0.4888" style="stop-color:#B0D57B"/>
	<stop  offset="0.5503" style="stop-color:#9BC16A"/>
	<stop  offset="0.6907" style="stop-color:#709947"/>
	<stop  offset="0.8174" style="stop-color:#527B2E"/>
	<stop  offset="0.9248" style="stop-color:#3F691E"/>
	<stop  offset="1" style="stop-color:#386319"/>
</linearGradient>
<path class="st2" d="M17.1,25.8c-1.1,0-2.2-0.2-3.1-0.6c-3.1-1.3-5.2-4.3-5.2-7.7c0-4.5,3.8-8.3,8.3-8.3c3.3,0,6.4,2,7.7,5.1
	c0.2,0.5,0.3,1,0.5,1.6c0.3,1.1,1.3,1.9,2.5,1.7c1.1-0.3,1.9-1.3,1.7-2.5c-0.2-0.8-0.4-1.6-0.7-2.4C26.7,8,22.1,5,17.1,5
	C10.2,5,4.6,10.6,4.6,17.5c0,5.1,3.1,9.6,7.8,11.6c1.5,0.6,3.1,1,4.8,1c1.1,0,2.1-1,2.1-2.1C19.3,26.8,18.3,25.8,17.1,25.8z"/>
</svg>
